<mxfile host="app.diagrams.net" modified="2020-11-04T18:53:55.428Z" agent="5.0 (Windows)" etag="M8HVgbg8DpFiWGZVEPak" version="13.8.9" type="github">
  <diagram id="R2lEEEUBdFMjLlhIrx00" name="Page-1">
    <mxGraphModel dx="2031" dy="2150" grid="1" gridSize="10" guides="1" tooltips="1" connect="1" arrows="1" fold="1" page="1" pageScale="1" pageWidth="850" pageHeight="1100" math="0" shadow="0" extFonts="Permanent Marker^https://fonts.googleapis.com/css?family=Permanent+Marker">
      <root>
        <mxCell id="0" />
        <mxCell id="1" parent="0" />
        <mxCell id="QIkEINPOBGStjpKCnxDB-57" style="edgeStyle=orthogonalEdgeStyle;rounded=0;orthogonalLoop=1;jettySize=auto;html=1;entryX=0.75;entryY=0;entryDx=0;entryDy=0;" parent="1" source="C-vyLk0tnHw3VtMMgP7b-2" target="QIkEINPOBGStjpKCnxDB-55" edge="1">
          <mxGeometry relative="1" as="geometry">
            <Array as="points">
              <mxPoint x="925" y="450" />
              <mxPoint x="585" y="450" />
            </Array>
          </mxGeometry>
        </mxCell>
        <mxCell id="C-vyLk0tnHw3VtMMgP7b-2" value="posts" style="shape=table;startSize=30;container=1;collapsible=1;childLayout=tableLayout;fixedRows=1;rowLines=0;fontStyle=1;align=center;resizeLast=1;fillColor=#fff2cc;strokeColor=#d6b656;" parent="1" vertex="1">
          <mxGeometry x="800" y="120" width="250" height="240" as="geometry" />
        </mxCell>
        <mxCell id="C-vyLk0tnHw3VtMMgP7b-3" value="" style="shape=partialRectangle;collapsible=0;dropTarget=0;pointerEvents=0;fillColor=none;points=[[0,0.5],[1,0.5]];portConstraint=eastwest;top=0;left=0;right=0;bottom=1;" parent="C-vyLk0tnHw3VtMMgP7b-2" vertex="1">
          <mxGeometry y="30" width="250" height="30" as="geometry" />
        </mxCell>
        <mxCell id="C-vyLk0tnHw3VtMMgP7b-4" value="PK" style="shape=partialRectangle;overflow=hidden;connectable=0;fillColor=none;top=0;left=0;bottom=0;right=0;fontStyle=1;" parent="C-vyLk0tnHw3VtMMgP7b-3" vertex="1">
          <mxGeometry width="30" height="30" as="geometry" />
        </mxCell>
        <mxCell id="C-vyLk0tnHw3VtMMgP7b-5" value="id int AUTO_INCREMENT " style="shape=partialRectangle;overflow=hidden;connectable=0;fillColor=none;top=0;left=0;bottom=0;right=0;align=left;spacingLeft=6;fontStyle=5;" parent="C-vyLk0tnHw3VtMMgP7b-3" vertex="1">
          <mxGeometry x="30" width="220" height="30" as="geometry" />
        </mxCell>
        <mxCell id="QIkEINPOBGStjpKCnxDB-28" value="" style="shape=partialRectangle;collapsible=0;dropTarget=0;pointerEvents=0;fillColor=none;points=[[0,0.5],[1,0.5]];portConstraint=eastwest;top=0;left=0;right=0;bottom=0;" parent="C-vyLk0tnHw3VtMMgP7b-2" vertex="1">
          <mxGeometry y="60" width="250" height="30" as="geometry" />
        </mxCell>
        <mxCell id="QIkEINPOBGStjpKCnxDB-29" value="FK1" style="shape=partialRectangle;overflow=hidden;connectable=0;fillColor=none;top=0;left=0;bottom=0;right=0;" parent="QIkEINPOBGStjpKCnxDB-28" vertex="1">
          <mxGeometry width="30" height="30" as="geometry" />
        </mxCell>
        <mxCell id="QIkEINPOBGStjpKCnxDB-30" value="nickname varchar(255) NOT NULL" style="shape=partialRectangle;overflow=hidden;connectable=0;fillColor=none;top=0;left=0;bottom=0;right=0;align=left;spacingLeft=6;" parent="QIkEINPOBGStjpKCnxDB-28" vertex="1">
          <mxGeometry x="30" width="220" height="30" as="geometry" />
        </mxCell>
        <mxCell id="QIkEINPOBGStjpKCnxDB-12" value="" style="shape=partialRectangle;collapsible=0;dropTarget=0;pointerEvents=0;fillColor=none;points=[[0,0.5],[1,0.5]];portConstraint=eastwest;top=0;left=0;right=0;bottom=0;" parent="C-vyLk0tnHw3VtMMgP7b-2" vertex="1">
          <mxGeometry y="90" width="250" height="30" as="geometry" />
        </mxCell>
        <mxCell id="QIkEINPOBGStjpKCnxDB-13" value="" style="shape=partialRectangle;overflow=hidden;connectable=0;fillColor=none;top=0;left=0;bottom=0;right=0;" parent="QIkEINPOBGStjpKCnxDB-12" vertex="1">
          <mxGeometry width="30" height="30" as="geometry" />
        </mxCell>
        <mxCell id="QIkEINPOBGStjpKCnxDB-14" value="title varchar(255) NOT NULL" style="shape=partialRectangle;overflow=hidden;connectable=0;fillColor=none;top=0;left=0;bottom=0;right=0;align=left;spacingLeft=6;" parent="QIkEINPOBGStjpKCnxDB-12" vertex="1">
          <mxGeometry x="30" width="220" height="30" as="geometry" />
        </mxCell>
        <mxCell id="QIkEINPOBGStjpKCnxDB-18" value="" style="shape=partialRectangle;collapsible=0;dropTarget=0;pointerEvents=0;fillColor=none;points=[[0,0.5],[1,0.5]];portConstraint=eastwest;top=0;left=0;right=0;bottom=0;" parent="C-vyLk0tnHw3VtMMgP7b-2" vertex="1">
          <mxGeometry y="120" width="250" height="30" as="geometry" />
        </mxCell>
        <mxCell id="QIkEINPOBGStjpKCnxDB-19" value="" style="shape=partialRectangle;overflow=hidden;connectable=0;fillColor=none;top=0;left=0;bottom=0;right=0;" parent="QIkEINPOBGStjpKCnxDB-18" vertex="1">
          <mxGeometry width="30" height="30" as="geometry" />
        </mxCell>
        <mxCell id="QIkEINPOBGStjpKCnxDB-20" value="description text NOT NULL" style="shape=partialRectangle;overflow=hidden;connectable=0;fillColor=none;top=0;left=0;bottom=0;right=0;align=left;spacingLeft=6;" parent="QIkEINPOBGStjpKCnxDB-18" vertex="1">
          <mxGeometry x="30" width="220" height="30" as="geometry" />
        </mxCell>
        <mxCell id="QIkEINPOBGStjpKCnxDB-32" value="" style="shape=partialRectangle;collapsible=0;dropTarget=0;pointerEvents=0;fillColor=none;points=[[0,0.5],[1,0.5]];portConstraint=eastwest;top=0;left=0;right=0;bottom=0;" parent="C-vyLk0tnHw3VtMMgP7b-2" vertex="1">
          <mxGeometry y="150" width="250" height="30" as="geometry" />
        </mxCell>
        <mxCell id="QIkEINPOBGStjpKCnxDB-33" value="" style="shape=partialRectangle;overflow=hidden;connectable=0;fillColor=none;top=0;left=0;bottom=0;right=0;" parent="QIkEINPOBGStjpKCnxDB-32" vertex="1">
          <mxGeometry width="30" height="30" as="geometry" />
        </mxCell>
        <mxCell id="QIkEINPOBGStjpKCnxDB-34" value="sum_likes int(255) NOT NULL" style="shape=partialRectangle;overflow=hidden;connectable=0;fillColor=none;top=0;left=0;bottom=0;right=0;align=left;spacingLeft=6;" parent="QIkEINPOBGStjpKCnxDB-32" vertex="1">
          <mxGeometry x="30" width="220" height="30" as="geometry" />
        </mxCell>
        <mxCell id="QIkEINPOBGStjpKCnxDB-24" value="" style="shape=partialRectangle;collapsible=0;dropTarget=0;pointerEvents=0;fillColor=none;points=[[0,0.5],[1,0.5]];portConstraint=eastwest;top=0;left=0;right=0;bottom=0;" parent="C-vyLk0tnHw3VtMMgP7b-2" vertex="1">
          <mxGeometry y="180" width="250" height="30" as="geometry" />
        </mxCell>
        <mxCell id="QIkEINPOBGStjpKCnxDB-25" value="" style="shape=partialRectangle;overflow=hidden;connectable=0;fillColor=none;top=0;left=0;bottom=0;right=0;" parent="QIkEINPOBGStjpKCnxDB-24" vertex="1">
          <mxGeometry width="30" height="30" as="geometry" />
        </mxCell>
        <mxCell id="QIkEINPOBGStjpKCnxDB-26" value="date date NOT NULL" style="shape=partialRectangle;overflow=hidden;connectable=0;fillColor=none;top=0;left=0;bottom=0;right=0;align=left;spacingLeft=6;" parent="QIkEINPOBGStjpKCnxDB-24" vertex="1">
          <mxGeometry x="30" width="220" height="30" as="geometry" />
        </mxCell>
        <mxCell id="C-vyLk0tnHw3VtMMgP7b-9" value="" style="shape=partialRectangle;collapsible=0;dropTarget=0;pointerEvents=0;fillColor=none;points=[[0,0.5],[1,0.5]];portConstraint=eastwest;top=0;left=0;right=0;bottom=0;" parent="C-vyLk0tnHw3VtMMgP7b-2" vertex="1">
          <mxGeometry y="210" width="250" height="30" as="geometry" />
        </mxCell>
        <mxCell id="C-vyLk0tnHw3VtMMgP7b-10" value="" style="shape=partialRectangle;overflow=hidden;connectable=0;fillColor=none;top=0;left=0;bottom=0;right=0;" parent="C-vyLk0tnHw3VtMMgP7b-9" vertex="1">
          <mxGeometry width="30" height="30" as="geometry" />
        </mxCell>
        <mxCell id="C-vyLk0tnHw3VtMMgP7b-11" value="" style="shape=partialRectangle;overflow=hidden;connectable=0;fillColor=none;top=0;left=0;bottom=0;right=0;align=left;spacingLeft=6;" parent="C-vyLk0tnHw3VtMMgP7b-9" vertex="1">
          <mxGeometry x="30" width="220" height="30" as="geometry" />
        </mxCell>
        <mxCell id="QIkEINPOBGStjpKCnxDB-50" style="edgeStyle=orthogonalEdgeStyle;rounded=0;orthogonalLoop=1;jettySize=auto;html=1;entryX=1;entryY=0.75;entryDx=0;entryDy=0;" parent="1" source="C-vyLk0tnHw3VtMMgP7b-13" edge="1">
          <mxGeometry relative="1" as="geometry">
            <mxPoint x="650" y="645" as="targetPoint" />
            <Array as="points">
              <mxPoint x="730" y="580" />
              <mxPoint x="730" y="645" />
            </Array>
          </mxGeometry>
        </mxCell>
        <mxCell id="C-vyLk0tnHw3VtMMgP7b-13" value="delete" style="shape=table;startSize=30;container=1;collapsible=1;childLayout=tableLayout;fixedRows=1;rowLines=0;fontStyle=1;align=center;resizeLast=1;fillColor=#f8cecc;strokeColor=#b85450;" parent="1" vertex="1">
          <mxGeometry x="810" y="470" width="250" height="130" as="geometry" />
        </mxCell>
        <mxCell id="C-vyLk0tnHw3VtMMgP7b-14" value="" style="shape=partialRectangle;collapsible=0;dropTarget=0;pointerEvents=0;fillColor=none;points=[[0,0.5],[1,0.5]];portConstraint=eastwest;top=0;left=0;right=0;bottom=1;" parent="C-vyLk0tnHw3VtMMgP7b-13" vertex="1">
          <mxGeometry y="30" width="250" height="30" as="geometry" />
        </mxCell>
        <mxCell id="C-vyLk0tnHw3VtMMgP7b-15" value="PK" style="shape=partialRectangle;overflow=hidden;connectable=0;fillColor=none;top=0;left=0;bottom=0;right=0;fontStyle=1;" parent="C-vyLk0tnHw3VtMMgP7b-14" vertex="1">
          <mxGeometry width="30" height="30" as="geometry" />
        </mxCell>
        <mxCell id="C-vyLk0tnHw3VtMMgP7b-16" value="id int AUTO_INCREMENT " style="shape=partialRectangle;overflow=hidden;connectable=0;fillColor=none;top=0;left=0;bottom=0;right=0;align=left;spacingLeft=6;fontStyle=5;" parent="C-vyLk0tnHw3VtMMgP7b-14" vertex="1">
          <mxGeometry x="30" width="220" height="30" as="geometry" />
        </mxCell>
        <mxCell id="C-vyLk0tnHw3VtMMgP7b-17" value="" style="shape=partialRectangle;collapsible=0;dropTarget=0;pointerEvents=0;fillColor=none;points=[[0,0.5],[1,0.5]];portConstraint=eastwest;top=0;left=0;right=0;bottom=0;" parent="C-vyLk0tnHw3VtMMgP7b-13" vertex="1">
          <mxGeometry y="60" width="250" height="30" as="geometry" />
        </mxCell>
        <mxCell id="C-vyLk0tnHw3VtMMgP7b-18" value="" style="shape=partialRectangle;overflow=hidden;connectable=0;fillColor=none;top=0;left=0;bottom=0;right=0;" parent="C-vyLk0tnHw3VtMMgP7b-17" vertex="1">
          <mxGeometry width="30" height="30" as="geometry" />
        </mxCell>
        <mxCell id="C-vyLk0tnHw3VtMMgP7b-19" value="nickname varchar(255) NOT NULL" style="shape=partialRectangle;overflow=hidden;connectable=0;fillColor=none;top=0;left=0;bottom=0;right=0;align=left;spacingLeft=6;" parent="C-vyLk0tnHw3VtMMgP7b-17" vertex="1">
          <mxGeometry x="30" width="220" height="30" as="geometry" />
        </mxCell>
        <mxCell id="C-vyLk0tnHw3VtMMgP7b-20" value="" style="shape=partialRectangle;collapsible=0;dropTarget=0;pointerEvents=0;fillColor=none;points=[[0,0.5],[1,0.5]];portConstraint=eastwest;top=0;left=0;right=0;bottom=0;" parent="C-vyLk0tnHw3VtMMgP7b-13" vertex="1">
          <mxGeometry y="90" width="250" height="30" as="geometry" />
        </mxCell>
        <mxCell id="C-vyLk0tnHw3VtMMgP7b-21" value="" style="shape=partialRectangle;overflow=hidden;connectable=0;fillColor=none;top=0;left=0;bottom=0;right=0;" parent="C-vyLk0tnHw3VtMMgP7b-20" vertex="1">
          <mxGeometry width="30" height="30" as="geometry" />
        </mxCell>
        <mxCell id="C-vyLk0tnHw3VtMMgP7b-22" value="date date NOT NULL" style="shape=partialRectangle;overflow=hidden;connectable=0;fillColor=none;top=0;left=0;bottom=0;right=0;align=left;spacingLeft=6;" parent="C-vyLk0tnHw3VtMMgP7b-20" vertex="1">
          <mxGeometry x="30" width="220" height="30" as="geometry" />
        </mxCell>
        <mxCell id="QIkEINPOBGStjpKCnxDB-56" style="edgeStyle=orthogonalEdgeStyle;rounded=0;orthogonalLoop=1;jettySize=auto;html=1;entryX=0.5;entryY=0;entryDx=0;entryDy=0;" parent="1" source="C-vyLk0tnHw3VtMMgP7b-23" target="QIkEINPOBGStjpKCnxDB-55" edge="1">
          <mxGeometry relative="1" as="geometry" />
        </mxCell>
        <mxCell id="QIkEINPOBGStjpKCnxDB-58" style="edgeStyle=orthogonalEdgeStyle;rounded=0;orthogonalLoop=1;jettySize=auto;html=1;entryX=1;entryY=0.75;entryDx=0;entryDy=0;" parent="1" source="gh7-r8IVdGVvYdA096_q-3" target="QIkEINPOBGStjpKCnxDB-55" edge="1">
          <mxGeometry relative="1" as="geometry">
            <Array as="points">
              <mxPoint x="1260" y="737" />
            </Array>
          </mxGeometry>
        </mxCell>
        <mxCell id="gh7-r8IVdGVvYdA096_q-3" value="Like system" style="shape=table;startSize=30;container=1;collapsible=1;childLayout=tableLayout;fixedRows=1;rowLines=0;fontStyle=1;align=center;resizeLast=1;fillColor=#dae8fc;strokeColor=#6c8ebf;" parent="1" vertex="1">
          <mxGeometry x="1120" y="100" width="250" height="150" as="geometry" />
        </mxCell>
        <mxCell id="gh7-r8IVdGVvYdA096_q-4" value="" style="shape=partialRectangle;collapsible=0;dropTarget=0;pointerEvents=0;fillColor=none;points=[[0,0.5],[1,0.5]];portConstraint=eastwest;top=0;left=0;right=0;bottom=1;" parent="gh7-r8IVdGVvYdA096_q-3" vertex="1">
          <mxGeometry y="30" width="250" height="30" as="geometry" />
        </mxCell>
        <mxCell id="gh7-r8IVdGVvYdA096_q-5" value="PK" style="shape=partialRectangle;overflow=hidden;connectable=0;fillColor=none;top=0;left=0;bottom=0;right=0;fontStyle=1;" parent="gh7-r8IVdGVvYdA096_q-4" vertex="1">
          <mxGeometry width="30" height="30" as="geometry" />
        </mxCell>
        <mxCell id="gh7-r8IVdGVvYdA096_q-6" value="id int  AUTO_INCREMENT" style="shape=partialRectangle;overflow=hidden;connectable=0;fillColor=none;top=0;left=0;bottom=0;right=0;align=left;spacingLeft=6;fontStyle=5;" parent="gh7-r8IVdGVvYdA096_q-4" vertex="1">
          <mxGeometry x="30" width="220" height="30" as="geometry" />
        </mxCell>
        <mxCell id="gh7-r8IVdGVvYdA096_q-7" value="" style="shape=partialRectangle;collapsible=0;dropTarget=0;pointerEvents=0;fillColor=none;points=[[0,0.5],[1,0.5]];portConstraint=eastwest;top=0;left=0;right=0;bottom=0;" parent="gh7-r8IVdGVvYdA096_q-3" vertex="1">
          <mxGeometry y="60" width="250" height="30" as="geometry" />
        </mxCell>
        <mxCell id="gh7-r8IVdGVvYdA096_q-8" value="" style="shape=partialRectangle;overflow=hidden;connectable=0;fillColor=none;top=0;left=0;bottom=0;right=0;" parent="gh7-r8IVdGVvYdA096_q-7" vertex="1">
          <mxGeometry width="30" height="30" as="geometry" />
        </mxCell>
        <mxCell id="gh7-r8IVdGVvYdA096_q-9" value="nickname varchar(255) NOT NULL" style="shape=partialRectangle;overflow=hidden;connectable=0;fillColor=none;top=0;left=0;bottom=0;right=0;align=left;spacingLeft=6;" parent="gh7-r8IVdGVvYdA096_q-7" vertex="1">
          <mxGeometry x="30" width="220" height="30" as="geometry" />
        </mxCell>
        <mxCell id="gh7-r8IVdGVvYdA096_q-10" value="" style="shape=partialRectangle;collapsible=0;dropTarget=0;pointerEvents=0;fillColor=none;points=[[0,0.5],[1,0.5]];portConstraint=eastwest;top=0;left=0;right=0;bottom=0;" parent="gh7-r8IVdGVvYdA096_q-3" vertex="1">
          <mxGeometry y="90" width="250" height="30" as="geometry" />
        </mxCell>
        <mxCell id="gh7-r8IVdGVvYdA096_q-11" value="" style="shape=partialRectangle;overflow=hidden;connectable=0;fillColor=none;top=0;left=0;bottom=0;right=0;" parent="gh7-r8IVdGVvYdA096_q-10" vertex="1">
          <mxGeometry width="30" height="30" as="geometry" />
        </mxCell>
        <mxCell id="gh7-r8IVdGVvYdA096_q-12" value="post varchar(255) NOT NULL" style="shape=partialRectangle;overflow=hidden;connectable=0;fillColor=none;top=0;left=0;bottom=0;right=0;align=left;spacingLeft=6;" parent="gh7-r8IVdGVvYdA096_q-10" vertex="1">
          <mxGeometry x="30" width="220" height="30" as="geometry" />
        </mxCell>
        <mxCell id="QIkEINPOBGStjpKCnxDB-35" value="" style="shape=partialRectangle;collapsible=0;dropTarget=0;pointerEvents=0;fillColor=none;points=[[0,0.5],[1,0.5]];portConstraint=eastwest;top=0;left=0;right=0;bottom=0;" parent="gh7-r8IVdGVvYdA096_q-3" vertex="1">
          <mxGeometry y="120" width="250" height="30" as="geometry" />
        </mxCell>
        <mxCell id="QIkEINPOBGStjpKCnxDB-36" value="" style="shape=partialRectangle;overflow=hidden;connectable=0;fillColor=none;top=0;left=0;bottom=0;right=0;" parent="QIkEINPOBGStjpKCnxDB-35" vertex="1">
          <mxGeometry width="30" height="30" as="geometry" />
        </mxCell>
        <mxCell id="QIkEINPOBGStjpKCnxDB-37" value="date date NOT NULL" style="shape=partialRectangle;overflow=hidden;connectable=0;fillColor=none;top=0;left=0;bottom=0;right=0;align=left;spacingLeft=6;" parent="QIkEINPOBGStjpKCnxDB-35" vertex="1">
          <mxGeometry x="30" width="220" height="30" as="geometry" />
        </mxCell>
        <mxCell id="QIkEINPOBGStjpKCnxDB-31" style="edgeStyle=orthogonalEdgeStyle;rounded=0;orthogonalLoop=1;jettySize=auto;html=1;" parent="1" source="C-vyLk0tnHw3VtMMgP7b-6" target="QIkEINPOBGStjpKCnxDB-28" edge="1">
          <mxGeometry relative="1" as="geometry">
            <mxPoint x="620" y="225" as="targetPoint" />
            <Array as="points">
              <mxPoint x="700" y="225" />
              <mxPoint x="700" y="195" />
            </Array>
          </mxGeometry>
        </mxCell>
        <mxCell id="QIkEINPOBGStjpKCnxDB-45" style="edgeStyle=orthogonalEdgeStyle;rounded=0;orthogonalLoop=1;jettySize=auto;html=1;entryX=-0.006;entryY=0.494;entryDx=0;entryDy=0;entryPerimeter=0;" parent="1" source="QIkEINPOBGStjpKCnxDB-32" target="gh7-r8IVdGVvYdA096_q-4" edge="1">
          <mxGeometry relative="1" as="geometry">
            <mxPoint x="1110" y="140" as="targetPoint" />
            <Array as="points">
              <mxPoint x="1090" y="285" />
              <mxPoint x="1090" y="145" />
              <mxPoint x="1110" y="145" />
            </Array>
          </mxGeometry>
        </mxCell>
        <mxCell id="QIkEINPOBGStjpKCnxDB-48" style="edgeStyle=orthogonalEdgeStyle;rounded=0;orthogonalLoop=1;jettySize=auto;html=1;" parent="1" source="C-vyLk0tnHw3VtMMgP7b-6" target="C-vyLk0tnHw3VtMMgP7b-17" edge="1">
          <mxGeometry relative="1" as="geometry">
            <Array as="points">
              <mxPoint x="700" y="225" />
              <mxPoint x="700" y="545" />
            </Array>
          </mxGeometry>
        </mxCell>
        <mxCell id="QIkEINPOBGStjpKCnxDB-53" value="&lt;h1&gt;Instagram Clone database&lt;/h1&gt;&lt;div&gt;version 1.0&lt;br&gt;&lt;/div&gt;&lt;p&gt;&lt;br&gt;&lt;/p&gt;&lt;div&gt;&lt;br&gt;&lt;/div&gt;&lt;div&gt;&lt;br&gt;&lt;/div&gt;&lt;div&gt;&lt;br&gt;&lt;/div&gt;" style="text;html=1;strokeColor=none;fillColor=none;spacing=5;spacingTop=-20;whiteSpace=wrap;overflow=hidden;rounded=0;" parent="1" vertex="1">
          <mxGeometry x="590" width="400" height="80" as="geometry" />
        </mxCell>
        <mxCell id="QIkEINPOBGStjpKCnxDB-55" value="&lt;div&gt;mongo DB&lt;/div&gt;&lt;div&gt;&lt;br&gt;&lt;/div&gt;&lt;div&gt;- enter to admin panel;&lt;/div&gt;&lt;div&gt;- create post;&lt;/div&gt;&lt;div&gt;- request to delete;&lt;/div&gt;&lt;div&gt;-delete post;&lt;/div&gt;&lt;div&gt;- upload photo;&lt;/div&gt;&lt;div&gt;- notes who like post;&lt;br&gt;&lt;/div&gt;" style="rounded=0;whiteSpace=wrap;html=1;fillColor=#d5e8d4;strokeColor=#82b366;" parent="1" vertex="1">
          <mxGeometry x="390" y="610" width="260" height="170" as="geometry" />
        </mxCell>
        <mxCell id="P83O2xGlrIW2zpEGM05V-11" value="roles" style="shape=table;startSize=30;container=1;collapsible=1;childLayout=tableLayout;fixedRows=1;rowLines=0;fontStyle=1;align=center;resizeLast=1;fillColor=#dae8fc;strokeColor=#6c8ebf;" vertex="1" parent="1">
          <mxGeometry x="720" y="1250" width="250" height="210" as="geometry" />
        </mxCell>
        <mxCell id="P83O2xGlrIW2zpEGM05V-12" value="" style="shape=partialRectangle;collapsible=0;dropTarget=0;pointerEvents=0;fillColor=none;points=[[0,0.5],[1,0.5]];portConstraint=eastwest;top=0;left=0;right=0;bottom=1;" vertex="1" parent="P83O2xGlrIW2zpEGM05V-11">
          <mxGeometry y="30" width="250" height="30" as="geometry" />
        </mxCell>
        <mxCell id="P83O2xGlrIW2zpEGM05V-13" value="PK" style="shape=partialRectangle;overflow=hidden;connectable=0;fillColor=none;top=0;left=0;bottom=0;right=0;fontStyle=1;" vertex="1" parent="P83O2xGlrIW2zpEGM05V-12">
          <mxGeometry width="30" height="30" as="geometry" />
        </mxCell>
        <mxCell id="P83O2xGlrIW2zpEGM05V-14" value="id int AUTO_INCREMENT " style="shape=partialRectangle;overflow=hidden;connectable=0;fillColor=none;top=0;left=0;bottom=0;right=0;align=left;spacingLeft=6;fontStyle=5;" vertex="1" parent="P83O2xGlrIW2zpEGM05V-12">
          <mxGeometry x="30" width="220" height="30" as="geometry" />
        </mxCell>
        <mxCell id="P83O2xGlrIW2zpEGM05V-18" value="" style="shape=partialRectangle;collapsible=0;dropTarget=0;pointerEvents=0;fillColor=none;points=[[0,0.5],[1,0.5]];portConstraint=eastwest;top=0;left=0;right=0;bottom=0;" vertex="1" parent="P83O2xGlrIW2zpEGM05V-11">
          <mxGeometry y="60" width="250" height="30" as="geometry" />
        </mxCell>
        <mxCell id="P83O2xGlrIW2zpEGM05V-19" value="" style="shape=partialRectangle;overflow=hidden;connectable=0;fillColor=none;top=0;left=0;bottom=0;right=0;" vertex="1" parent="P83O2xGlrIW2zpEGM05V-18">
          <mxGeometry width="30" height="30" as="geometry" />
        </mxCell>
        <mxCell id="P83O2xGlrIW2zpEGM05V-20" value="admin varchar(255) NOT NULL" style="shape=partialRectangle;overflow=hidden;connectable=0;fillColor=none;top=0;left=0;bottom=0;right=0;align=left;spacingLeft=6;" vertex="1" parent="P83O2xGlrIW2zpEGM05V-18">
          <mxGeometry x="30" width="220" height="30" as="geometry" />
        </mxCell>
        <mxCell id="P83O2xGlrIW2zpEGM05V-100" value="" style="shape=partialRectangle;collapsible=0;dropTarget=0;pointerEvents=0;fillColor=none;points=[[0,0.5],[1,0.5]];portConstraint=eastwest;top=0;left=0;right=0;bottom=0;" vertex="1" parent="P83O2xGlrIW2zpEGM05V-11">
          <mxGeometry y="90" width="250" height="30" as="geometry" />
        </mxCell>
        <mxCell id="P83O2xGlrIW2zpEGM05V-101" value="" style="shape=partialRectangle;overflow=hidden;connectable=0;fillColor=none;top=0;left=0;bottom=0;right=0;" vertex="1" parent="P83O2xGlrIW2zpEGM05V-100">
          <mxGeometry width="30" height="30" as="geometry" />
        </mxCell>
        <mxCell id="P83O2xGlrIW2zpEGM05V-102" value="moderator varchar(255) NOT NULL" style="shape=partialRectangle;overflow=hidden;connectable=0;fillColor=none;top=0;left=0;bottom=0;right=0;align=left;spacingLeft=6;" vertex="1" parent="P83O2xGlrIW2zpEGM05V-100">
          <mxGeometry x="30" width="220" height="30" as="geometry" />
        </mxCell>
        <mxCell id="P83O2xGlrIW2zpEGM05V-103" value="" style="shape=partialRectangle;collapsible=0;dropTarget=0;pointerEvents=0;fillColor=none;points=[[0,0.5],[1,0.5]];portConstraint=eastwest;top=0;left=0;right=0;bottom=0;" vertex="1" parent="P83O2xGlrIW2zpEGM05V-11">
          <mxGeometry y="120" width="250" height="30" as="geometry" />
        </mxCell>
        <mxCell id="P83O2xGlrIW2zpEGM05V-104" value="" style="shape=partialRectangle;overflow=hidden;connectable=0;fillColor=none;top=0;left=0;bottom=0;right=0;" vertex="1" parent="P83O2xGlrIW2zpEGM05V-103">
          <mxGeometry width="30" height="30" as="geometry" />
        </mxCell>
        <mxCell id="P83O2xGlrIW2zpEGM05V-105" value="user varchar(255) NOT NULL" style="shape=partialRectangle;overflow=hidden;connectable=0;fillColor=none;top=0;left=0;bottom=0;right=0;align=left;spacingLeft=6;" vertex="1" parent="P83O2xGlrIW2zpEGM05V-103">
          <mxGeometry x="30" width="220" height="30" as="geometry" />
        </mxCell>
        <mxCell id="P83O2xGlrIW2zpEGM05V-106" value="" style="shape=partialRectangle;collapsible=0;dropTarget=0;pointerEvents=0;fillColor=none;points=[[0,0.5],[1,0.5]];portConstraint=eastwest;top=0;left=0;right=0;bottom=0;" vertex="1" parent="P83O2xGlrIW2zpEGM05V-11">
          <mxGeometry y="150" width="250" height="30" as="geometry" />
        </mxCell>
        <mxCell id="P83O2xGlrIW2zpEGM05V-107" value="" style="shape=partialRectangle;overflow=hidden;connectable=0;fillColor=none;top=0;left=0;bottom=0;right=0;" vertex="1" parent="P83O2xGlrIW2zpEGM05V-106">
          <mxGeometry width="30" height="30" as="geometry" />
        </mxCell>
        <mxCell id="P83O2xGlrIW2zpEGM05V-108" value="guest varchar(255) NOT NULL" style="shape=partialRectangle;overflow=hidden;connectable=0;fillColor=none;top=0;left=0;bottom=0;right=0;align=left;spacingLeft=6;" vertex="1" parent="P83O2xGlrIW2zpEGM05V-106">
          <mxGeometry x="30" width="220" height="30" as="geometry" />
        </mxCell>
        <mxCell id="P83O2xGlrIW2zpEGM05V-15" value="" style="shape=partialRectangle;collapsible=0;dropTarget=0;pointerEvents=0;fillColor=none;points=[[0,0.5],[1,0.5]];portConstraint=eastwest;top=0;left=0;right=0;bottom=0;" vertex="1" parent="P83O2xGlrIW2zpEGM05V-11">
          <mxGeometry y="180" width="250" height="30" as="geometry" />
        </mxCell>
        <mxCell id="P83O2xGlrIW2zpEGM05V-16" value="" style="shape=partialRectangle;overflow=hidden;connectable=0;fillColor=none;top=0;left=0;bottom=0;right=0;" vertex="1" parent="P83O2xGlrIW2zpEGM05V-15">
          <mxGeometry width="30" height="30" as="geometry" />
        </mxCell>
        <mxCell id="P83O2xGlrIW2zpEGM05V-17" value="" style="shape=partialRectangle;overflow=hidden;connectable=0;fillColor=none;top=0;left=0;bottom=0;right=0;align=left;spacingLeft=6;" vertex="1" parent="P83O2xGlrIW2zpEGM05V-15">
          <mxGeometry x="30" width="220" height="30" as="geometry" />
        </mxCell>
        <mxCell id="P83O2xGlrIW2zpEGM05V-21" value="user_roles" style="shape=table;startSize=30;container=1;collapsible=1;childLayout=tableLayout;fixedRows=1;rowLines=0;fontStyle=1;align=center;resizeLast=1;fillColor=#dae8fc;strokeColor=#6c8ebf;" vertex="1" parent="1">
          <mxGeometry x="1060" y="1250" width="250" height="130" as="geometry" />
        </mxCell>
        <mxCell id="P83O2xGlrIW2zpEGM05V-22" value="" style="shape=partialRectangle;collapsible=0;dropTarget=0;pointerEvents=0;fillColor=none;points=[[0,0.5],[1,0.5]];portConstraint=eastwest;top=0;left=0;right=0;bottom=1;" vertex="1" parent="P83O2xGlrIW2zpEGM05V-21">
          <mxGeometry y="30" width="250" height="30" as="geometry" />
        </mxCell>
        <mxCell id="P83O2xGlrIW2zpEGM05V-23" value="PK" style="shape=partialRectangle;overflow=hidden;connectable=0;fillColor=none;top=0;left=0;bottom=0;right=0;fontStyle=1;" vertex="1" parent="P83O2xGlrIW2zpEGM05V-22">
          <mxGeometry width="30" height="30" as="geometry" />
        </mxCell>
        <mxCell id="P83O2xGlrIW2zpEGM05V-24" value="id int AUTO_INCREMENT " style="shape=partialRectangle;overflow=hidden;connectable=0;fillColor=none;top=0;left=0;bottom=0;right=0;align=left;spacingLeft=6;fontStyle=5;" vertex="1" parent="P83O2xGlrIW2zpEGM05V-22">
          <mxGeometry x="30" width="220" height="30" as="geometry" />
        </mxCell>
        <mxCell id="P83O2xGlrIW2zpEGM05V-25" value="" style="shape=partialRectangle;collapsible=0;dropTarget=0;pointerEvents=0;fillColor=none;points=[[0,0.5],[1,0.5]];portConstraint=eastwest;top=0;left=0;right=0;bottom=0;" vertex="1" parent="P83O2xGlrIW2zpEGM05V-21">
          <mxGeometry y="60" width="250" height="30" as="geometry" />
        </mxCell>
        <mxCell id="P83O2xGlrIW2zpEGM05V-26" value="" style="shape=partialRectangle;overflow=hidden;connectable=0;fillColor=none;top=0;left=0;bottom=0;right=0;" vertex="1" parent="P83O2xGlrIW2zpEGM05V-25">
          <mxGeometry width="30" height="30" as="geometry" />
        </mxCell>
        <mxCell id="P83O2xGlrIW2zpEGM05V-27" value="user_id int(255) NOT NULL" style="shape=partialRectangle;overflow=hidden;connectable=0;fillColor=none;top=0;left=0;bottom=0;right=0;align=left;spacingLeft=6;" vertex="1" parent="P83O2xGlrIW2zpEGM05V-25">
          <mxGeometry x="30" width="220" height="30" as="geometry" />
        </mxCell>
        <mxCell id="P83O2xGlrIW2zpEGM05V-28" value="" style="shape=partialRectangle;collapsible=0;dropTarget=0;pointerEvents=0;fillColor=none;points=[[0,0.5],[1,0.5]];portConstraint=eastwest;top=0;left=0;right=0;bottom=0;" vertex="1" parent="P83O2xGlrIW2zpEGM05V-21">
          <mxGeometry y="90" width="250" height="30" as="geometry" />
        </mxCell>
        <mxCell id="P83O2xGlrIW2zpEGM05V-29" value="" style="shape=partialRectangle;overflow=hidden;connectable=0;fillColor=none;top=0;left=0;bottom=0;right=0;" vertex="1" parent="P83O2xGlrIW2zpEGM05V-28">
          <mxGeometry width="30" height="30" as="geometry" />
        </mxCell>
        <mxCell id="P83O2xGlrIW2zpEGM05V-30" value="role_id int(255) NOT NULL" style="shape=partialRectangle;overflow=hidden;connectable=0;fillColor=none;top=0;left=0;bottom=0;right=0;align=left;spacingLeft=6;" vertex="1" parent="P83O2xGlrIW2zpEGM05V-28">
          <mxGeometry x="30" width="220" height="30" as="geometry" />
        </mxCell>
        <mxCell id="P83O2xGlrIW2zpEGM05V-41" value="likes" style="shape=table;startSize=30;container=1;collapsible=1;childLayout=tableLayout;fixedRows=1;rowLines=0;fontStyle=1;align=center;resizeLast=1;fillColor=#dae8fc;strokeColor=#6c8ebf;" vertex="1" parent="1">
          <mxGeometry x="720" y="1600" width="250" height="220" as="geometry" />
        </mxCell>
        <mxCell id="P83O2xGlrIW2zpEGM05V-42" value="" style="shape=partialRectangle;collapsible=0;dropTarget=0;pointerEvents=0;fillColor=none;points=[[0,0.5],[1,0.5]];portConstraint=eastwest;top=0;left=0;right=0;bottom=1;" vertex="1" parent="P83O2xGlrIW2zpEGM05V-41">
          <mxGeometry y="30" width="250" height="30" as="geometry" />
        </mxCell>
        <mxCell id="P83O2xGlrIW2zpEGM05V-43" value="PK" style="shape=partialRectangle;overflow=hidden;connectable=0;fillColor=none;top=0;left=0;bottom=0;right=0;fontStyle=1;" vertex="1" parent="P83O2xGlrIW2zpEGM05V-42">
          <mxGeometry width="30" height="30" as="geometry" />
        </mxCell>
        <mxCell id="P83O2xGlrIW2zpEGM05V-44" value="id int AUTO_INCREMENT " style="shape=partialRectangle;overflow=hidden;connectable=0;fillColor=none;top=0;left=0;bottom=0;right=0;align=left;spacingLeft=6;fontStyle=5;" vertex="1" parent="P83O2xGlrIW2zpEGM05V-42">
          <mxGeometry x="30" width="220" height="30" as="geometry" />
        </mxCell>
        <mxCell id="P83O2xGlrIW2zpEGM05V-45" value="" style="shape=partialRectangle;collapsible=0;dropTarget=0;pointerEvents=0;fillColor=none;points=[[0,0.5],[1,0.5]];portConstraint=eastwest;top=0;left=0;right=0;bottom=0;" vertex="1" parent="P83O2xGlrIW2zpEGM05V-41">
          <mxGeometry y="60" width="250" height="30" as="geometry" />
        </mxCell>
        <mxCell id="P83O2xGlrIW2zpEGM05V-46" value="" style="shape=partialRectangle;overflow=hidden;connectable=0;fillColor=none;top=0;left=0;bottom=0;right=0;" vertex="1" parent="P83O2xGlrIW2zpEGM05V-45">
          <mxGeometry width="30" height="30" as="geometry" />
        </mxCell>
        <mxCell id="P83O2xGlrIW2zpEGM05V-47" value="nickname varchar(255) NOT NULL" style="shape=partialRectangle;overflow=hidden;connectable=0;fillColor=none;top=0;left=0;bottom=0;right=0;align=left;spacingLeft=6;" vertex="1" parent="P83O2xGlrIW2zpEGM05V-45">
          <mxGeometry x="30" width="220" height="30" as="geometry" />
        </mxCell>
        <mxCell id="P83O2xGlrIW2zpEGM05V-48" value="" style="shape=partialRectangle;collapsible=0;dropTarget=0;pointerEvents=0;fillColor=none;points=[[0,0.5],[1,0.5]];portConstraint=eastwest;top=0;left=0;right=0;bottom=0;" vertex="1" parent="P83O2xGlrIW2zpEGM05V-41">
          <mxGeometry y="90" width="250" height="30" as="geometry" />
        </mxCell>
        <mxCell id="P83O2xGlrIW2zpEGM05V-49" value="" style="shape=partialRectangle;overflow=hidden;connectable=0;fillColor=none;top=0;left=0;bottom=0;right=0;" vertex="1" parent="P83O2xGlrIW2zpEGM05V-48">
          <mxGeometry width="30" height="30" as="geometry" />
        </mxCell>
        <mxCell id="P83O2xGlrIW2zpEGM05V-50" value="date date NOT NULL" style="shape=partialRectangle;overflow=hidden;connectable=0;fillColor=none;top=0;left=0;bottom=0;right=0;align=left;spacingLeft=6;" vertex="1" parent="P83O2xGlrIW2zpEGM05V-48">
          <mxGeometry x="30" width="220" height="30" as="geometry" />
        </mxCell>
        <mxCell id="P83O2xGlrIW2zpEGM05V-143" value="" style="shape=partialRectangle;collapsible=0;dropTarget=0;pointerEvents=0;fillColor=none;points=[[0,0.5],[1,0.5]];portConstraint=eastwest;top=0;left=0;right=0;bottom=0;" vertex="1" parent="P83O2xGlrIW2zpEGM05V-41">
          <mxGeometry y="120" width="250" height="30" as="geometry" />
        </mxCell>
        <mxCell id="P83O2xGlrIW2zpEGM05V-144" value="" style="shape=partialRectangle;overflow=hidden;connectable=0;fillColor=none;top=0;left=0;bottom=0;right=0;" vertex="1" parent="P83O2xGlrIW2zpEGM05V-143">
          <mxGeometry width="30" height="30" as="geometry" />
        </mxCell>
        <mxCell id="P83O2xGlrIW2zpEGM05V-145" value="post_id NOT NULL" style="shape=partialRectangle;overflow=hidden;connectable=0;fillColor=none;top=0;left=0;bottom=0;right=0;align=left;spacingLeft=6;" vertex="1" parent="P83O2xGlrIW2zpEGM05V-143">
          <mxGeometry x="30" width="220" height="30" as="geometry" />
        </mxCell>
        <mxCell id="P83O2xGlrIW2zpEGM05V-51" value="routes" style="shape=table;startSize=30;container=1;collapsible=1;childLayout=tableLayout;fixedRows=1;rowLines=0;fontStyle=1;align=center;resizeLast=1;fillColor=#dae8fc;strokeColor=#6c8ebf;" vertex="1" parent="1">
          <mxGeometry x="1070" y="1660" width="250" height="130" as="geometry" />
        </mxCell>
        <mxCell id="P83O2xGlrIW2zpEGM05V-52" value="" style="shape=partialRectangle;collapsible=0;dropTarget=0;pointerEvents=0;fillColor=none;points=[[0,0.5],[1,0.5]];portConstraint=eastwest;top=0;left=0;right=0;bottom=1;" vertex="1" parent="P83O2xGlrIW2zpEGM05V-51">
          <mxGeometry y="30" width="250" height="30" as="geometry" />
        </mxCell>
        <mxCell id="P83O2xGlrIW2zpEGM05V-53" value="PK" style="shape=partialRectangle;overflow=hidden;connectable=0;fillColor=none;top=0;left=0;bottom=0;right=0;fontStyle=1;" vertex="1" parent="P83O2xGlrIW2zpEGM05V-52">
          <mxGeometry width="30" height="30" as="geometry" />
        </mxCell>
        <mxCell id="P83O2xGlrIW2zpEGM05V-54" value="id int AUTO_INCREMENT " style="shape=partialRectangle;overflow=hidden;connectable=0;fillColor=none;top=0;left=0;bottom=0;right=0;align=left;spacingLeft=6;fontStyle=5;" vertex="1" parent="P83O2xGlrIW2zpEGM05V-52">
          <mxGeometry x="30" width="220" height="30" as="geometry" />
        </mxCell>
        <mxCell id="P83O2xGlrIW2zpEGM05V-55" value="" style="shape=partialRectangle;collapsible=0;dropTarget=0;pointerEvents=0;fillColor=none;points=[[0,0.5],[1,0.5]];portConstraint=eastwest;top=0;left=0;right=0;bottom=0;" vertex="1" parent="P83O2xGlrIW2zpEGM05V-51">
          <mxGeometry y="60" width="250" height="30" as="geometry" />
        </mxCell>
        <mxCell id="P83O2xGlrIW2zpEGM05V-56" value="" style="shape=partialRectangle;overflow=hidden;connectable=0;fillColor=none;top=0;left=0;bottom=0;right=0;" vertex="1" parent="P83O2xGlrIW2zpEGM05V-55">
          <mxGeometry width="30" height="30" as="geometry" />
        </mxCell>
        <mxCell id="P83O2xGlrIW2zpEGM05V-57" value="path varchar(1000) NOT NULL" style="shape=partialRectangle;overflow=hidden;connectable=0;fillColor=none;top=0;left=0;bottom=0;right=0;align=left;spacingLeft=6;" vertex="1" parent="P83O2xGlrIW2zpEGM05V-55">
          <mxGeometry x="30" width="220" height="30" as="geometry" />
        </mxCell>
        <mxCell id="P83O2xGlrIW2zpEGM05V-58" value="" style="shape=partialRectangle;collapsible=0;dropTarget=0;pointerEvents=0;fillColor=none;points=[[0,0.5],[1,0.5]];portConstraint=eastwest;top=0;left=0;right=0;bottom=0;" vertex="1" parent="P83O2xGlrIW2zpEGM05V-51">
          <mxGeometry y="90" width="250" height="30" as="geometry" />
        </mxCell>
        <mxCell id="P83O2xGlrIW2zpEGM05V-59" value="" style="shape=partialRectangle;overflow=hidden;connectable=0;fillColor=none;top=0;left=0;bottom=0;right=0;" vertex="1" parent="P83O2xGlrIW2zpEGM05V-58">
          <mxGeometry width="30" height="30" as="geometry" />
        </mxCell>
        <mxCell id="P83O2xGlrIW2zpEGM05V-60" value="" style="shape=partialRectangle;overflow=hidden;connectable=0;fillColor=none;top=0;left=0;bottom=0;right=0;align=left;spacingLeft=6;" vertex="1" parent="P83O2xGlrIW2zpEGM05V-58">
          <mxGeometry x="30" width="220" height="30" as="geometry" />
        </mxCell>
        <mxCell id="P83O2xGlrIW2zpEGM05V-81" value="" style="group" vertex="1" connectable="0" parent="1">
          <mxGeometry x="310" y="120" width="300" height="310" as="geometry" />
        </mxCell>
        <mxCell id="C-vyLk0tnHw3VtMMgP7b-23" value="users" style="shape=table;startSize=30;container=1;collapsible=1;childLayout=tableLayout;fixedRows=1;rowLines=0;fontStyle=1;align=center;resizeLast=1;fillColor=#fff2cc;strokeColor=#d6b656;" parent="P83O2xGlrIW2zpEGM05V-81" vertex="1">
          <mxGeometry width="300" height="310" as="geometry" />
        </mxCell>
        <mxCell id="C-vyLk0tnHw3VtMMgP7b-24" value="" style="shape=partialRectangle;collapsible=0;dropTarget=0;pointerEvents=0;fillColor=none;points=[[0,0.5],[1,0.5]];portConstraint=eastwest;top=0;left=0;right=0;bottom=1;" parent="C-vyLk0tnHw3VtMMgP7b-23" vertex="1">
          <mxGeometry y="30" width="300" height="30" as="geometry" />
        </mxCell>
        <mxCell id="C-vyLk0tnHw3VtMMgP7b-25" value="PK" style="shape=partialRectangle;overflow=hidden;connectable=0;fillColor=none;top=0;left=0;bottom=0;right=0;fontStyle=1;" parent="C-vyLk0tnHw3VtMMgP7b-24" vertex="1">
          <mxGeometry width="30" height="30" as="geometry" />
        </mxCell>
        <mxCell id="C-vyLk0tnHw3VtMMgP7b-26" value="id int AUTO_INCREMENT " style="shape=partialRectangle;overflow=hidden;connectable=0;fillColor=none;top=0;left=0;bottom=0;right=0;align=left;spacingLeft=6;fontStyle=5;" parent="C-vyLk0tnHw3VtMMgP7b-24" vertex="1">
          <mxGeometry x="30" width="270" height="30" as="geometry" />
        </mxCell>
        <mxCell id="C-vyLk0tnHw3VtMMgP7b-27" value="" style="shape=partialRectangle;collapsible=0;dropTarget=0;pointerEvents=0;fillColor=none;points=[[0,0.5],[1,0.5]];portConstraint=eastwest;top=0;left=0;right=0;bottom=0;" parent="C-vyLk0tnHw3VtMMgP7b-23" vertex="1">
          <mxGeometry y="60" width="300" height="30" as="geometry" />
        </mxCell>
        <mxCell id="C-vyLk0tnHw3VtMMgP7b-28" value="" style="shape=partialRectangle;overflow=hidden;connectable=0;fillColor=none;top=0;left=0;bottom=0;right=0;" parent="C-vyLk0tnHw3VtMMgP7b-27" vertex="1">
          <mxGeometry width="30" height="30" as="geometry" />
        </mxCell>
        <mxCell id="C-vyLk0tnHw3VtMMgP7b-29" value="" style="shape=partialRectangle;overflow=hidden;connectable=0;fillColor=none;top=0;left=0;bottom=0;right=0;align=left;spacingLeft=6;" parent="C-vyLk0tnHw3VtMMgP7b-27" vertex="1">
          <mxGeometry x="30" width="270" height="30" as="geometry" />
        </mxCell>
        <mxCell id="C-vyLk0tnHw3VtMMgP7b-6" value="" style="shape=partialRectangle;collapsible=0;dropTarget=0;pointerEvents=0;fillColor=none;points=[[0,0.5],[1,0.5]];portConstraint=eastwest;top=0;left=0;right=0;bottom=0;" parent="C-vyLk0tnHw3VtMMgP7b-23" vertex="1">
          <mxGeometry y="90" width="300" height="30" as="geometry" />
        </mxCell>
        <mxCell id="C-vyLk0tnHw3VtMMgP7b-7" value="FK1" style="shape=partialRectangle;overflow=hidden;connectable=0;fillColor=none;top=0;left=0;bottom=0;right=0;" parent="C-vyLk0tnHw3VtMMgP7b-6" vertex="1">
          <mxGeometry width="30" height="30" as="geometry" />
        </mxCell>
        <mxCell id="C-vyLk0tnHw3VtMMgP7b-8" value="nickname varchar(255) NOT NULL" style="shape=partialRectangle;overflow=hidden;connectable=0;fillColor=none;top=0;left=0;bottom=0;right=0;align=left;spacingLeft=6;" parent="C-vyLk0tnHw3VtMMgP7b-6" vertex="1">
          <mxGeometry x="30" width="270" height="30" as="geometry" />
        </mxCell>
        <mxCell id="QIkEINPOBGStjpKCnxDB-1" value="typeofaccount varchar(50) NOT NULL" style="shape=partialRectangle;overflow=hidden;connectable=0;fillColor=none;top=0;left=0;bottom=0;right=0;align=left;spacingLeft=6;" parent="P83O2xGlrIW2zpEGM05V-81" vertex="1">
          <mxGeometry x="30" y="60" width="220" height="30" as="geometry" />
        </mxCell>
        <mxCell id="QIkEINPOBGStjpKCnxDB-2" value="password varchar(255) NOT NULL" style="shape=partialRectangle;overflow=hidden;connectable=0;fillColor=none;top=0;left=0;bottom=0;right=0;align=left;spacingLeft=6;" parent="P83O2xGlrIW2zpEGM05V-81" vertex="1">
          <mxGeometry x="30" y="150" width="220" height="30" as="geometry" />
        </mxCell>
        <mxCell id="QIkEINPOBGStjpKCnxDB-3" value="second_name varchar(255) NOT NULL" style="shape=partialRectangle;overflow=hidden;connectable=0;fillColor=none;top=0;left=0;bottom=0;right=0;align=left;spacingLeft=6;" parent="P83O2xGlrIW2zpEGM05V-81" vertex="1">
          <mxGeometry x="30" y="180" width="220" height="30" as="geometry" />
        </mxCell>
        <mxCell id="QIkEINPOBGStjpKCnxDB-4" value="ip int(20) NOT NULL" style="shape=partialRectangle;overflow=hidden;connectable=0;fillColor=none;top=0;left=0;bottom=0;right=0;align=left;spacingLeft=6;" parent="P83O2xGlrIW2zpEGM05V-81" vertex="1">
          <mxGeometry x="30" y="270" width="220" height="30" as="geometry" />
        </mxCell>
        <mxCell id="QIkEINPOBGStjpKCnxDB-5" value="age int(5) NOT NULL" style="shape=partialRectangle;overflow=hidden;connectable=0;fillColor=none;top=0;left=0;bottom=0;right=0;align=left;spacingLeft=6;" parent="P83O2xGlrIW2zpEGM05V-81" vertex="1">
          <mxGeometry x="30" y="210" width="220" height="30" as="geometry" />
        </mxCell>
        <mxCell id="QIkEINPOBGStjpKCnxDB-6" value="photo varchar(255) NOT NULL" style="shape=partialRectangle;overflow=hidden;connectable=0;fillColor=none;top=0;left=0;bottom=0;right=0;align=left;spacingLeft=6;" parent="P83O2xGlrIW2zpEGM05V-81" vertex="1">
          <mxGeometry x="30" y="240" width="220" height="30" as="geometry" />
        </mxCell>
        <mxCell id="QIkEINPOBGStjpKCnxDB-8" value="name varchar(255) NOT NULL" style="shape=partialRectangle;overflow=hidden;connectable=0;fillColor=none;top=0;left=0;bottom=0;right=0;align=left;spacingLeft=6;" parent="P83O2xGlrIW2zpEGM05V-81" vertex="1">
          <mxGeometry x="30" y="120" width="220" height="30" as="geometry" />
        </mxCell>
        <mxCell id="P83O2xGlrIW2zpEGM05V-82" value="" style="group" vertex="1" connectable="0" parent="1">
          <mxGeometry x="350" y="1250" width="300" height="310" as="geometry" />
        </mxCell>
        <mxCell id="P83O2xGlrIW2zpEGM05V-83" value="users" style="shape=table;startSize=30;container=1;collapsible=1;childLayout=tableLayout;fixedRows=1;rowLines=0;fontStyle=1;align=center;resizeLast=1;fillColor=#dae8fc;strokeColor=#6c8ebf;" vertex="1" parent="P83O2xGlrIW2zpEGM05V-82">
          <mxGeometry width="300" height="310" as="geometry" />
        </mxCell>
        <mxCell id="P83O2xGlrIW2zpEGM05V-84" value="" style="shape=partialRectangle;collapsible=0;dropTarget=0;pointerEvents=0;fillColor=none;points=[[0,0.5],[1,0.5]];portConstraint=eastwest;top=0;left=0;right=0;bottom=1;" vertex="1" parent="P83O2xGlrIW2zpEGM05V-83">
          <mxGeometry y="30" width="300" height="30" as="geometry" />
        </mxCell>
        <mxCell id="P83O2xGlrIW2zpEGM05V-85" value="PK" style="shape=partialRectangle;overflow=hidden;connectable=0;fillColor=none;top=0;left=0;bottom=0;right=0;fontStyle=1;" vertex="1" parent="P83O2xGlrIW2zpEGM05V-84">
          <mxGeometry width="30" height="30" as="geometry" />
        </mxCell>
        <mxCell id="P83O2xGlrIW2zpEGM05V-86" value="id int AUTO_INCREMENT " style="shape=partialRectangle;overflow=hidden;connectable=0;fillColor=none;top=0;left=0;bottom=0;right=0;align=left;spacingLeft=6;fontStyle=5;" vertex="1" parent="P83O2xGlrIW2zpEGM05V-84">
          <mxGeometry x="30" width="270" height="30" as="geometry" />
        </mxCell>
        <mxCell id="P83O2xGlrIW2zpEGM05V-87" value="" style="shape=partialRectangle;collapsible=0;dropTarget=0;pointerEvents=0;fillColor=none;points=[[0,0.5],[1,0.5]];portConstraint=eastwest;top=0;left=0;right=0;bottom=0;" vertex="1" parent="P83O2xGlrIW2zpEGM05V-83">
          <mxGeometry y="60" width="300" height="30" as="geometry" />
        </mxCell>
        <mxCell id="P83O2xGlrIW2zpEGM05V-88" value="" style="shape=partialRectangle;overflow=hidden;connectable=0;fillColor=none;top=0;left=0;bottom=0;right=0;" vertex="1" parent="P83O2xGlrIW2zpEGM05V-87">
          <mxGeometry width="30" height="30" as="geometry" />
        </mxCell>
        <mxCell id="P83O2xGlrIW2zpEGM05V-89" value="" style="shape=partialRectangle;overflow=hidden;connectable=0;fillColor=none;top=0;left=0;bottom=0;right=0;align=left;spacingLeft=6;" vertex="1" parent="P83O2xGlrIW2zpEGM05V-87">
          <mxGeometry x="30" width="270" height="30" as="geometry" />
        </mxCell>
        <mxCell id="P83O2xGlrIW2zpEGM05V-90" value="" style="shape=partialRectangle;collapsible=0;dropTarget=0;pointerEvents=0;fillColor=none;points=[[0,0.5],[1,0.5]];portConstraint=eastwest;top=0;left=0;right=0;bottom=0;" vertex="1" parent="P83O2xGlrIW2zpEGM05V-83">
          <mxGeometry y="90" width="300" height="30" as="geometry" />
        </mxCell>
        <mxCell id="P83O2xGlrIW2zpEGM05V-91" value="" style="shape=partialRectangle;overflow=hidden;connectable=0;fillColor=none;top=0;left=0;bottom=0;right=0;" vertex="1" parent="P83O2xGlrIW2zpEGM05V-90">
          <mxGeometry width="30" height="30" as="geometry" />
        </mxCell>
        <mxCell id="P83O2xGlrIW2zpEGM05V-92" value="nickname varchar(255) NOT NULL" style="shape=partialRectangle;overflow=hidden;connectable=0;fillColor=none;top=0;left=0;bottom=0;right=0;align=left;spacingLeft=6;" vertex="1" parent="P83O2xGlrIW2zpEGM05V-90">
          <mxGeometry x="30" width="270" height="30" as="geometry" />
        </mxCell>
        <mxCell id="P83O2xGlrIW2zpEGM05V-93" value="role_id int(50) NOT NULL" style="shape=partialRectangle;overflow=hidden;connectable=0;fillColor=none;top=0;left=0;bottom=0;right=0;align=left;spacingLeft=6;" vertex="1" parent="P83O2xGlrIW2zpEGM05V-82">
          <mxGeometry x="30" y="60" width="220" height="30" as="geometry" />
        </mxCell>
        <mxCell id="P83O2xGlrIW2zpEGM05V-94" value="password varchar(255) NOT NULL" style="shape=partialRectangle;overflow=hidden;connectable=0;fillColor=none;top=0;left=0;bottom=0;right=0;align=left;spacingLeft=6;" vertex="1" parent="P83O2xGlrIW2zpEGM05V-82">
          <mxGeometry x="30" y="150" width="220" height="30" as="geometry" />
        </mxCell>
        <mxCell id="P83O2xGlrIW2zpEGM05V-95" value="second_name varchar(255) NOT NULL" style="shape=partialRectangle;overflow=hidden;connectable=0;fillColor=none;top=0;left=0;bottom=0;right=0;align=left;spacingLeft=6;" vertex="1" parent="P83O2xGlrIW2zpEGM05V-82">
          <mxGeometry x="30" y="180" width="220" height="30" as="geometry" />
        </mxCell>
        <mxCell id="P83O2xGlrIW2zpEGM05V-96" value="ip int(20) NOT NULL" style="shape=partialRectangle;overflow=hidden;connectable=0;fillColor=none;top=0;left=0;bottom=0;right=0;align=left;spacingLeft=6;" vertex="1" parent="P83O2xGlrIW2zpEGM05V-82">
          <mxGeometry x="30" y="270" width="220" height="30" as="geometry" />
        </mxCell>
        <mxCell id="P83O2xGlrIW2zpEGM05V-97" value="age int(5) NOT NULL" style="shape=partialRectangle;overflow=hidden;connectable=0;fillColor=none;top=0;left=0;bottom=0;right=0;align=left;spacingLeft=6;" vertex="1" parent="P83O2xGlrIW2zpEGM05V-82">
          <mxGeometry x="30" y="210" width="220" height="30" as="geometry" />
        </mxCell>
        <mxCell id="P83O2xGlrIW2zpEGM05V-98" value="photo varchar(255) NOT NULL" style="shape=partialRectangle;overflow=hidden;connectable=0;fillColor=none;top=0;left=0;bottom=0;right=0;align=left;spacingLeft=6;" vertex="1" parent="P83O2xGlrIW2zpEGM05V-82">
          <mxGeometry x="30" y="240" width="220" height="30" as="geometry" />
        </mxCell>
        <mxCell id="P83O2xGlrIW2zpEGM05V-99" value="name varchar(255) NOT NULL" style="shape=partialRectangle;overflow=hidden;connectable=0;fillColor=none;top=0;left=0;bottom=0;right=0;align=left;spacingLeft=6;" vertex="1" parent="P83O2xGlrIW2zpEGM05V-82">
          <mxGeometry x="30" y="120" width="220" height="30" as="geometry" />
        </mxCell>
        <mxCell id="P83O2xGlrIW2zpEGM05V-109" style="edgeStyle=orthogonalEdgeStyle;rounded=0;orthogonalLoop=1;jettySize=auto;html=1;exitX=1;exitY=0.5;exitDx=0;exitDy=0;entryX=0;entryY=0.5;entryDx=0;entryDy=0;" edge="1" parent="1" source="P83O2xGlrIW2zpEGM05V-87" target="P83O2xGlrIW2zpEGM05V-12">
          <mxGeometry relative="1" as="geometry" />
        </mxCell>
        <mxCell id="P83O2xGlrIW2zpEGM05V-110" style="edgeStyle=orthogonalEdgeStyle;rounded=0;orthogonalLoop=1;jettySize=auto;html=1;exitX=1;exitY=0.5;exitDx=0;exitDy=0;entryX=0;entryY=0.5;entryDx=0;entryDy=0;" edge="1" parent="1" source="P83O2xGlrIW2zpEGM05V-84" target="P83O2xGlrIW2zpEGM05V-25">
          <mxGeometry relative="1" as="geometry">
            <Array as="points">
              <mxPoint x="670" y="1295" />
              <mxPoint x="670" y="1220" />
              <mxPoint x="1030" y="1220" />
              <mxPoint x="1030" y="1325" />
            </Array>
          </mxGeometry>
        </mxCell>
        <mxCell id="P83O2xGlrIW2zpEGM05V-111" style="edgeStyle=orthogonalEdgeStyle;rounded=0;orthogonalLoop=1;jettySize=auto;html=1;entryX=1;entryY=0.5;entryDx=0;entryDy=0;" edge="1" parent="1" source="P83O2xGlrIW2zpEGM05V-28" target="P83O2xGlrIW2zpEGM05V-12">
          <mxGeometry relative="1" as="geometry" />
        </mxCell>
        <mxCell id="P83O2xGlrIW2zpEGM05V-113" value="" style="group" vertex="1" connectable="0" parent="1">
          <mxGeometry x="1060" y="1410" width="250" height="160" as="geometry" />
        </mxCell>
        <mxCell id="P83O2xGlrIW2zpEGM05V-61" value="access" style="shape=table;startSize=30;container=1;collapsible=1;childLayout=tableLayout;fixedRows=1;rowLines=0;fontStyle=1;align=center;resizeLast=1;fillColor=#dae8fc;strokeColor=#6c8ebf;" vertex="1" parent="P83O2xGlrIW2zpEGM05V-113">
          <mxGeometry width="250" height="160" as="geometry" />
        </mxCell>
        <mxCell id="P83O2xGlrIW2zpEGM05V-62" value="" style="shape=partialRectangle;collapsible=0;dropTarget=0;pointerEvents=0;fillColor=none;points=[[0,0.5],[1,0.5]];portConstraint=eastwest;top=0;left=0;right=0;bottom=1;" vertex="1" parent="P83O2xGlrIW2zpEGM05V-61">
          <mxGeometry y="30" width="250" height="30" as="geometry" />
        </mxCell>
        <mxCell id="P83O2xGlrIW2zpEGM05V-63" value="PK" style="shape=partialRectangle;overflow=hidden;connectable=0;fillColor=none;top=0;left=0;bottom=0;right=0;fontStyle=1;" vertex="1" parent="P83O2xGlrIW2zpEGM05V-62">
          <mxGeometry width="30" height="30" as="geometry" />
        </mxCell>
        <mxCell id="P83O2xGlrIW2zpEGM05V-64" value="id int AUTO_INCREMENT " style="shape=partialRectangle;overflow=hidden;connectable=0;fillColor=none;top=0;left=0;bottom=0;right=0;align=left;spacingLeft=6;fontStyle=5;" vertex="1" parent="P83O2xGlrIW2zpEGM05V-62">
          <mxGeometry x="30" width="220" height="30" as="geometry" />
        </mxCell>
        <mxCell id="P83O2xGlrIW2zpEGM05V-65" value="" style="shape=partialRectangle;collapsible=0;dropTarget=0;pointerEvents=0;fillColor=none;points=[[0,0.5],[1,0.5]];portConstraint=eastwest;top=0;left=0;right=0;bottom=0;" vertex="1" parent="P83O2xGlrIW2zpEGM05V-61">
          <mxGeometry y="60" width="250" height="30" as="geometry" />
        </mxCell>
        <mxCell id="P83O2xGlrIW2zpEGM05V-66" value="" style="shape=partialRectangle;overflow=hidden;connectable=0;fillColor=none;top=0;left=0;bottom=0;right=0;" vertex="1" parent="P83O2xGlrIW2zpEGM05V-65">
          <mxGeometry width="30" height="30" as="geometry" />
        </mxCell>
        <mxCell id="P83O2xGlrIW2zpEGM05V-67" value="nickname varchar(255) NOT NULL" style="shape=partialRectangle;overflow=hidden;connectable=0;fillColor=none;top=0;left=0;bottom=0;right=0;align=left;spacingLeft=6;" vertex="1" parent="P83O2xGlrIW2zpEGM05V-65">
          <mxGeometry x="30" width="220" height="30" as="geometry" />
        </mxCell>
        <mxCell id="P83O2xGlrIW2zpEGM05V-68" value="" style="shape=partialRectangle;collapsible=0;dropTarget=0;pointerEvents=0;fillColor=none;points=[[0,0.5],[1,0.5]];portConstraint=eastwest;top=0;left=0;right=0;bottom=0;" vertex="1" parent="P83O2xGlrIW2zpEGM05V-61">
          <mxGeometry y="90" width="250" height="30" as="geometry" />
        </mxCell>
        <mxCell id="P83O2xGlrIW2zpEGM05V-69" value="" style="shape=partialRectangle;overflow=hidden;connectable=0;fillColor=none;top=0;left=0;bottom=0;right=0;" vertex="1" parent="P83O2xGlrIW2zpEGM05V-68">
          <mxGeometry width="30" height="30" as="geometry" />
        </mxCell>
        <mxCell id="P83O2xGlrIW2zpEGM05V-70" value="route_id int(100) NOT NULL" style="shape=partialRectangle;overflow=hidden;connectable=0;fillColor=none;top=0;left=0;bottom=0;right=0;align=left;spacingLeft=6;" vertex="1" parent="P83O2xGlrIW2zpEGM05V-68">
          <mxGeometry x="30" width="220" height="30" as="geometry" />
        </mxCell>
        <mxCell id="P83O2xGlrIW2zpEGM05V-112" value="role_id int(100) NOT NULL" style="shape=partialRectangle;overflow=hidden;connectable=0;fillColor=none;top=0;left=0;bottom=0;right=0;align=left;spacingLeft=6;" vertex="1" parent="P83O2xGlrIW2zpEGM05V-113">
          <mxGeometry x="30" y="120" width="220" height="30" as="geometry" />
        </mxCell>
        <mxCell id="P83O2xGlrIW2zpEGM05V-115" style="edgeStyle=orthogonalEdgeStyle;rounded=0;orthogonalLoop=1;jettySize=auto;html=1;exitX=1;exitY=0.5;exitDx=0;exitDy=0;" edge="1" parent="1" source="P83O2xGlrIW2zpEGM05V-12">
          <mxGeometry relative="1" as="geometry">
            <mxPoint x="1060" y="1550" as="targetPoint" />
            <Array as="points">
              <mxPoint x="1000" y="1295" />
              <mxPoint x="1000" y="1550" />
            </Array>
          </mxGeometry>
        </mxCell>
        <mxCell id="P83O2xGlrIW2zpEGM05V-116" style="edgeStyle=orthogonalEdgeStyle;rounded=0;orthogonalLoop=1;jettySize=auto;html=1;exitX=1;exitY=0.5;exitDx=0;exitDy=0;entryX=1;entryY=0.5;entryDx=0;entryDy=0;" edge="1" parent="1" source="P83O2xGlrIW2zpEGM05V-68" target="P83O2xGlrIW2zpEGM05V-55">
          <mxGeometry relative="1" as="geometry" />
        </mxCell>
        <mxCell id="P83O2xGlrIW2zpEGM05V-117" value="posts" style="shape=table;startSize=30;container=1;collapsible=1;childLayout=tableLayout;fixedRows=1;rowLines=0;fontStyle=1;align=center;resizeLast=1;fillColor=#dae8fc;strokeColor=#6c8ebf;" vertex="1" parent="1">
          <mxGeometry x="370" y="1610" width="250" height="330" as="geometry" />
        </mxCell>
        <mxCell id="P83O2xGlrIW2zpEGM05V-118" value="" style="shape=partialRectangle;collapsible=0;dropTarget=0;pointerEvents=0;fillColor=none;points=[[0,0.5],[1,0.5]];portConstraint=eastwest;top=0;left=0;right=0;bottom=1;" vertex="1" parent="P83O2xGlrIW2zpEGM05V-117">
          <mxGeometry y="30" width="250" height="30" as="geometry" />
        </mxCell>
        <mxCell id="P83O2xGlrIW2zpEGM05V-119" value="PK" style="shape=partialRectangle;overflow=hidden;connectable=0;fillColor=none;top=0;left=0;bottom=0;right=0;fontStyle=1;" vertex="1" parent="P83O2xGlrIW2zpEGM05V-118">
          <mxGeometry width="30" height="30" as="geometry" />
        </mxCell>
        <mxCell id="P83O2xGlrIW2zpEGM05V-120" value="id int AUTO_INCREMENT " style="shape=partialRectangle;overflow=hidden;connectable=0;fillColor=none;top=0;left=0;bottom=0;right=0;align=left;spacingLeft=6;fontStyle=5;" vertex="1" parent="P83O2xGlrIW2zpEGM05V-118">
          <mxGeometry x="30" width="220" height="30" as="geometry" />
        </mxCell>
        <mxCell id="P83O2xGlrIW2zpEGM05V-124" value="" style="shape=partialRectangle;collapsible=0;dropTarget=0;pointerEvents=0;fillColor=none;points=[[0,0.5],[1,0.5]];portConstraint=eastwest;top=0;left=0;right=0;bottom=0;" vertex="1" parent="P83O2xGlrIW2zpEGM05V-117">
          <mxGeometry y="60" width="250" height="30" as="geometry" />
        </mxCell>
        <mxCell id="P83O2xGlrIW2zpEGM05V-125" value="" style="shape=partialRectangle;overflow=hidden;connectable=0;fillColor=none;top=0;left=0;bottom=0;right=0;" vertex="1" parent="P83O2xGlrIW2zpEGM05V-124">
          <mxGeometry width="30" height="30" as="geometry" />
        </mxCell>
        <mxCell id="P83O2xGlrIW2zpEGM05V-126" value="title varchar(255) NOT NULL" style="shape=partialRectangle;overflow=hidden;connectable=0;fillColor=none;top=0;left=0;bottom=0;right=0;align=left;spacingLeft=6;" vertex="1" parent="P83O2xGlrIW2zpEGM05V-124">
          <mxGeometry x="30" width="220" height="30" as="geometry" />
        </mxCell>
        <mxCell id="P83O2xGlrIW2zpEGM05V-133" value="" style="shape=partialRectangle;collapsible=0;dropTarget=0;pointerEvents=0;fillColor=none;points=[[0,0.5],[1,0.5]];portConstraint=eastwest;top=0;left=0;right=0;bottom=0;" vertex="1" parent="P83O2xGlrIW2zpEGM05V-117">
          <mxGeometry y="90" width="250" height="30" as="geometry" />
        </mxCell>
        <mxCell id="P83O2xGlrIW2zpEGM05V-134" value="" style="shape=partialRectangle;overflow=hidden;connectable=0;fillColor=none;top=0;left=0;bottom=0;right=0;" vertex="1" parent="P83O2xGlrIW2zpEGM05V-133">
          <mxGeometry width="30" height="30" as="geometry" />
        </mxCell>
        <mxCell id="P83O2xGlrIW2zpEGM05V-135" value="date date NOT NULL" style="shape=partialRectangle;overflow=hidden;connectable=0;fillColor=none;top=0;left=0;bottom=0;right=0;align=left;spacingLeft=6;" vertex="1" parent="P83O2xGlrIW2zpEGM05V-133">
          <mxGeometry x="30" width="220" height="30" as="geometry" />
        </mxCell>
        <mxCell id="P83O2xGlrIW2zpEGM05V-153" value="" style="shape=partialRectangle;collapsible=0;dropTarget=0;pointerEvents=0;fillColor=none;points=[[0,0.5],[1,0.5]];portConstraint=eastwest;top=0;left=0;right=0;bottom=0;" vertex="1" parent="P83O2xGlrIW2zpEGM05V-117">
          <mxGeometry y="120" width="250" height="30" as="geometry" />
        </mxCell>
        <mxCell id="P83O2xGlrIW2zpEGM05V-154" value="" style="shape=partialRectangle;overflow=hidden;connectable=0;fillColor=none;top=0;left=0;bottom=0;right=0;" vertex="1" parent="P83O2xGlrIW2zpEGM05V-153">
          <mxGeometry width="30" height="30" as="geometry" />
        </mxCell>
        <mxCell id="P83O2xGlrIW2zpEGM05V-155" value="post_image varchar(1000) NOT NULL" style="shape=partialRectangle;overflow=hidden;connectable=0;fillColor=none;top=0;left=0;bottom=0;right=0;align=left;spacingLeft=6;" vertex="1" parent="P83O2xGlrIW2zpEGM05V-153">
          <mxGeometry x="30" width="220" height="30" as="geometry" />
        </mxCell>
        <mxCell id="P83O2xGlrIW2zpEGM05V-127" value="" style="shape=partialRectangle;collapsible=0;dropTarget=0;pointerEvents=0;fillColor=none;points=[[0,0.5],[1,0.5]];portConstraint=eastwest;top=0;left=0;right=0;bottom=0;" vertex="1" parent="P83O2xGlrIW2zpEGM05V-117">
          <mxGeometry y="150" width="250" height="30" as="geometry" />
        </mxCell>
        <mxCell id="P83O2xGlrIW2zpEGM05V-128" value="" style="shape=partialRectangle;overflow=hidden;connectable=0;fillColor=none;top=0;left=0;bottom=0;right=0;" vertex="1" parent="P83O2xGlrIW2zpEGM05V-127">
          <mxGeometry width="30" height="30" as="geometry" />
        </mxCell>
        <mxCell id="P83O2xGlrIW2zpEGM05V-129" value="description text NOT NULL" style="shape=partialRectangle;overflow=hidden;connectable=0;fillColor=none;top=0;left=0;bottom=0;right=0;align=left;spacingLeft=6;" vertex="1" parent="P83O2xGlrIW2zpEGM05V-127">
          <mxGeometry x="30" width="220" height="30" as="geometry" />
        </mxCell>
        <mxCell id="P83O2xGlrIW2zpEGM05V-130" value="" style="shape=partialRectangle;collapsible=0;dropTarget=0;pointerEvents=0;fillColor=none;points=[[0,0.5],[1,0.5]];portConstraint=eastwest;top=0;left=0;right=0;bottom=0;" vertex="1" parent="P83O2xGlrIW2zpEGM05V-117">
          <mxGeometry y="180" width="250" height="30" as="geometry" />
        </mxCell>
        <mxCell id="P83O2xGlrIW2zpEGM05V-131" value="" style="shape=partialRectangle;overflow=hidden;connectable=0;fillColor=none;top=0;left=0;bottom=0;right=0;" vertex="1" parent="P83O2xGlrIW2zpEGM05V-130">
          <mxGeometry width="30" height="30" as="geometry" />
        </mxCell>
        <mxCell id="P83O2xGlrIW2zpEGM05V-132" value="sum_likes int(255) NOT NULL" style="shape=partialRectangle;overflow=hidden;connectable=0;fillColor=none;top=0;left=0;bottom=0;right=0;align=left;spacingLeft=6;" vertex="1" parent="P83O2xGlrIW2zpEGM05V-130">
          <mxGeometry x="30" width="220" height="30" as="geometry" />
        </mxCell>
        <mxCell id="P83O2xGlrIW2zpEGM05V-121" value="" style="shape=partialRectangle;collapsible=0;dropTarget=0;pointerEvents=0;fillColor=none;points=[[0,0.5],[1,0.5]];portConstraint=eastwest;top=0;left=0;right=0;bottom=0;" vertex="1" parent="P83O2xGlrIW2zpEGM05V-117">
          <mxGeometry y="210" width="250" height="30" as="geometry" />
        </mxCell>
        <mxCell id="P83O2xGlrIW2zpEGM05V-122" value="" style="shape=partialRectangle;overflow=hidden;connectable=0;fillColor=none;top=0;left=0;bottom=0;right=0;" vertex="1" parent="P83O2xGlrIW2zpEGM05V-121">
          <mxGeometry width="30" height="30" as="geometry" />
        </mxCell>
        <mxCell id="P83O2xGlrIW2zpEGM05V-123" value="" style="shape=partialRectangle;overflow=hidden;connectable=0;fillColor=none;top=0;left=0;bottom=0;right=0;align=left;spacingLeft=6;" vertex="1" parent="P83O2xGlrIW2zpEGM05V-121">
          <mxGeometry x="30" width="220" height="30" as="geometry" />
        </mxCell>
        <mxCell id="P83O2xGlrIW2zpEGM05V-136" value="" style="shape=partialRectangle;collapsible=0;dropTarget=0;pointerEvents=0;fillColor=none;points=[[0,0.5],[1,0.5]];portConstraint=eastwest;top=0;left=0;right=0;bottom=0;" vertex="1" parent="P83O2xGlrIW2zpEGM05V-117">
          <mxGeometry y="240" width="250" height="30" as="geometry" />
        </mxCell>
        <mxCell id="P83O2xGlrIW2zpEGM05V-137" value="" style="shape=partialRectangle;overflow=hidden;connectable=0;fillColor=none;top=0;left=0;bottom=0;right=0;" vertex="1" parent="P83O2xGlrIW2zpEGM05V-136">
          <mxGeometry width="30" height="30" as="geometry" />
        </mxCell>
        <mxCell id="P83O2xGlrIW2zpEGM05V-138" value="" style="shape=partialRectangle;overflow=hidden;connectable=0;top=0;left=0;bottom=0;right=0;align=left;spacingLeft=6;fillColor=none;" vertex="1" parent="P83O2xGlrIW2zpEGM05V-136">
          <mxGeometry x="30" width="220" height="30" as="geometry" />
        </mxCell>
        <mxCell id="P83O2xGlrIW2zpEGM05V-156" value="" style="shape=partialRectangle;collapsible=0;dropTarget=0;pointerEvents=0;fillColor=none;points=[[0,0.5],[1,0.5]];portConstraint=eastwest;top=0;left=0;right=0;bottom=0;" vertex="1" parent="P83O2xGlrIW2zpEGM05V-117">
          <mxGeometry y="270" width="250" height="30" as="geometry" />
        </mxCell>
        <mxCell id="P83O2xGlrIW2zpEGM05V-157" value="" style="shape=partialRectangle;overflow=hidden;connectable=0;fillColor=none;top=0;left=0;bottom=0;right=0;" vertex="1" parent="P83O2xGlrIW2zpEGM05V-156">
          <mxGeometry width="30" height="30" as="geometry" />
        </mxCell>
        <mxCell id="P83O2xGlrIW2zpEGM05V-158" value="" style="shape=partialRectangle;overflow=hidden;connectable=0;fillColor=none;top=0;left=0;bottom=0;right=0;align=left;spacingLeft=6;" vertex="1" parent="P83O2xGlrIW2zpEGM05V-156">
          <mxGeometry x="30" width="220" height="30" as="geometry" />
        </mxCell>
        <mxCell id="P83O2xGlrIW2zpEGM05V-139" value="" style="shape=partialRectangle;collapsible=0;dropTarget=0;pointerEvents=0;fillColor=none;points=[[0,0.5],[1,0.5]];portConstraint=eastwest;top=0;left=0;right=0;bottom=0;" vertex="1" parent="P83O2xGlrIW2zpEGM05V-117">
          <mxGeometry y="300" width="250" height="30" as="geometry" />
        </mxCell>
        <mxCell id="P83O2xGlrIW2zpEGM05V-140" value="" style="shape=partialRectangle;overflow=hidden;connectable=0;fillColor=none;top=0;left=0;bottom=0;right=0;" vertex="1" parent="P83O2xGlrIW2zpEGM05V-139">
          <mxGeometry width="30" height="30" as="geometry" />
        </mxCell>
        <mxCell id="P83O2xGlrIW2zpEGM05V-141" value="" style="shape=partialRectangle;overflow=hidden;connectable=0;fillColor=none;top=0;left=0;bottom=0;right=0;align=left;spacingLeft=6;" vertex="1" parent="P83O2xGlrIW2zpEGM05V-139">
          <mxGeometry x="30" width="220" height="30" as="geometry" />
        </mxCell>
        <mxCell id="P83O2xGlrIW2zpEGM05V-150" style="edgeStyle=orthogonalEdgeStyle;rounded=0;orthogonalLoop=1;jettySize=auto;html=1;exitX=0;exitY=0.5;exitDx=0;exitDy=0;entryX=1;entryY=0.5;entryDx=0;entryDy=0;" edge="1" parent="1" source="P83O2xGlrIW2zpEGM05V-143" target="P83O2xGlrIW2zpEGM05V-118">
          <mxGeometry relative="1" as="geometry" />
        </mxCell>
        <mxCell id="P83O2xGlrIW2zpEGM05V-151" style="edgeStyle=orthogonalEdgeStyle;rounded=0;orthogonalLoop=1;jettySize=auto;html=1;exitX=0;exitY=0.5;exitDx=0;exitDy=0;entryX=1;entryY=0.5;entryDx=0;entryDy=0;" edge="1" parent="1" source="P83O2xGlrIW2zpEGM05V-45" target="P83O2xGlrIW2zpEGM05V-90">
          <mxGeometry relative="1" as="geometry" />
        </mxCell>
        <mxCell id="P83O2xGlrIW2zpEGM05V-152" style="edgeStyle=orthogonalEdgeStyle;rounded=0;orthogonalLoop=1;jettySize=auto;html=1;entryX=0;entryY=0.5;entryDx=0;entryDy=0;" edge="1" parent="1" target="P83O2xGlrIW2zpEGM05V-90">
          <mxGeometry relative="1" as="geometry">
            <mxPoint x="370" y="1660" as="sourcePoint" />
            <Array as="points">
              <mxPoint x="370" y="1660" />
              <mxPoint x="260" y="1660" />
              <mxPoint x="260" y="1355" />
            </Array>
          </mxGeometry>
        </mxCell>
        <mxCell id="P83O2xGlrIW2zpEGM05V-159" value="delete" style="shape=table;startSize=30;container=1;collapsible=1;childLayout=tableLayout;fixedRows=1;rowLines=0;fontStyle=1;align=center;resizeLast=1;fillColor=#dae8fc;strokeColor=#6c8ebf;" vertex="1" parent="1">
          <mxGeometry x="1070" y="1070" width="250" height="130" as="geometry" />
        </mxCell>
        <mxCell id="P83O2xGlrIW2zpEGM05V-160" value="" style="shape=partialRectangle;collapsible=0;dropTarget=0;pointerEvents=0;fillColor=none;points=[[0,0.5],[1,0.5]];portConstraint=eastwest;top=0;left=0;right=0;bottom=1;" vertex="1" parent="P83O2xGlrIW2zpEGM05V-159">
          <mxGeometry y="30" width="250" height="30" as="geometry" />
        </mxCell>
        <mxCell id="P83O2xGlrIW2zpEGM05V-161" value="PK" style="shape=partialRectangle;overflow=hidden;connectable=0;fillColor=none;top=0;left=0;bottom=0;right=0;fontStyle=1;" vertex="1" parent="P83O2xGlrIW2zpEGM05V-160">
          <mxGeometry width="30" height="30" as="geometry" />
        </mxCell>
        <mxCell id="P83O2xGlrIW2zpEGM05V-162" value="id int AUTO_INCREMENT " style="shape=partialRectangle;overflow=hidden;connectable=0;fillColor=none;top=0;left=0;bottom=0;right=0;align=left;spacingLeft=6;fontStyle=5;" vertex="1" parent="P83O2xGlrIW2zpEGM05V-160">
          <mxGeometry x="30" width="220" height="30" as="geometry" />
        </mxCell>
        <mxCell id="P83O2xGlrIW2zpEGM05V-163" value="" style="shape=partialRectangle;collapsible=0;dropTarget=0;pointerEvents=0;fillColor=none;points=[[0,0.5],[1,0.5]];portConstraint=eastwest;top=0;left=0;right=0;bottom=0;" vertex="1" parent="P83O2xGlrIW2zpEGM05V-159">
          <mxGeometry y="60" width="250" height="30" as="geometry" />
        </mxCell>
        <mxCell id="P83O2xGlrIW2zpEGM05V-164" value="" style="shape=partialRectangle;overflow=hidden;connectable=0;fillColor=none;top=0;left=0;bottom=0;right=0;" vertex="1" parent="P83O2xGlrIW2zpEGM05V-163">
          <mxGeometry width="30" height="30" as="geometry" />
        </mxCell>
        <mxCell id="P83O2xGlrIW2zpEGM05V-165" value="nickname varchar(255) NOT NULL" style="shape=partialRectangle;overflow=hidden;connectable=0;fillColor=none;top=0;left=0;bottom=0;right=0;align=left;spacingLeft=6;" vertex="1" parent="P83O2xGlrIW2zpEGM05V-163">
          <mxGeometry x="30" width="220" height="30" as="geometry" />
        </mxCell>
        <mxCell id="P83O2xGlrIW2zpEGM05V-166" value="" style="shape=partialRectangle;collapsible=0;dropTarget=0;pointerEvents=0;fillColor=none;points=[[0,0.5],[1,0.5]];portConstraint=eastwest;top=0;left=0;right=0;bottom=0;" vertex="1" parent="P83O2xGlrIW2zpEGM05V-159">
          <mxGeometry y="90" width="250" height="30" as="geometry" />
        </mxCell>
        <mxCell id="P83O2xGlrIW2zpEGM05V-167" value="" style="shape=partialRectangle;overflow=hidden;connectable=0;fillColor=none;top=0;left=0;bottom=0;right=0;" vertex="1" parent="P83O2xGlrIW2zpEGM05V-166">
          <mxGeometry width="30" height="30" as="geometry" />
        </mxCell>
        <mxCell id="P83O2xGlrIW2zpEGM05V-168" value="date date NOT NULL" style="shape=partialRectangle;overflow=hidden;connectable=0;fillColor=none;top=0;left=0;bottom=0;right=0;align=left;spacingLeft=6;" vertex="1" parent="P83O2xGlrIW2zpEGM05V-166">
          <mxGeometry x="30" width="220" height="30" as="geometry" />
        </mxCell>
        <mxCell id="P83O2xGlrIW2zpEGM05V-169" style="edgeStyle=orthogonalEdgeStyle;rounded=0;orthogonalLoop=1;jettySize=auto;html=1;exitX=0;exitY=0.5;exitDx=0;exitDy=0;entryX=0;entryY=0.5;entryDx=0;entryDy=0;" edge="1" parent="1" source="P83O2xGlrIW2zpEGM05V-84" target="P83O2xGlrIW2zpEGM05V-160">
          <mxGeometry relative="1" as="geometry">
            <Array as="points">
              <mxPoint x="330" y="1295" />
              <mxPoint x="330" y="1115" />
            </Array>
          </mxGeometry>
        </mxCell>
        <mxCell id="P83O2xGlrIW2zpEGM05V-170" value="&lt;h1&gt;Instagram Clone database&lt;/h1&gt;&lt;div&gt;version 2.0&lt;br&gt;&lt;/div&gt;&lt;p&gt;&lt;br&gt;&lt;/p&gt;&lt;div&gt;&lt;br&gt;&lt;/div&gt;&lt;div&gt;&lt;br&gt;&lt;/div&gt;&lt;div&gt;&lt;br&gt;&lt;/div&gt;" style="text;html=1;strokeColor=none;fillColor=none;spacing=5;spacingTop=-20;whiteSpace=wrap;overflow=hidden;rounded=0;" vertex="1" parent="1">
          <mxGeometry x="590" y="970" width="400" height="80" as="geometry" />
        </mxCell>
        <mxCell id="P83O2xGlrIW2zpEGM05V-173" style="edgeStyle=orthogonalEdgeStyle;rounded=0;orthogonalLoop=1;jettySize=auto;html=1;entryX=-0.013;entryY=0.833;entryDx=0;entryDy=0;entryPerimeter=0;" edge="1" parent="1" source="P83O2xGlrIW2zpEGM05V-171" target="P83O2xGlrIW2zpEGM05V-84">
          <mxGeometry relative="1" as="geometry">
            <Array as="points">
              <mxPoint x="210" y="2060" />
              <mxPoint x="210" y="1305" />
            </Array>
          </mxGeometry>
        </mxCell>
        <mxCell id="P83O2xGlrIW2zpEGM05V-171" value="&lt;div&gt;mongo DB&lt;/div&gt;&lt;div&gt;&lt;br&gt;&lt;/div&gt;&lt;div&gt;- enter to admin panel;&lt;/div&gt;&lt;div&gt;- create post;&lt;/div&gt;&lt;div&gt;- request to delete;&lt;/div&gt;&lt;div&gt;-delete post;&lt;/div&gt;&lt;div&gt;- upload photo;&lt;/div&gt;&lt;div&gt;- notes who like post;&lt;br&gt;&lt;/div&gt;" style="rounded=0;whiteSpace=wrap;html=1;fillColor=#b0e3e6;strokeColor=#0e8088;" vertex="1" parent="1">
          <mxGeometry x="735" y="2000" width="220" height="120" as="geometry" />
        </mxCell>
        <mxCell id="P83O2xGlrIW2zpEGM05V-172" style="edgeStyle=orthogonalEdgeStyle;rounded=0;orthogonalLoop=1;jettySize=auto;html=1;exitX=0;exitY=0.5;exitDx=0;exitDy=0;entryX=1;entryY=0.5;entryDx=0;entryDy=0;" edge="1" parent="1" source="P83O2xGlrIW2zpEGM05V-55" target="P83O2xGlrIW2zpEGM05V-171">
          <mxGeometry relative="1" as="geometry">
            <mxPoint x="1010" y="2070" as="targetPoint" />
          </mxGeometry>
        </mxCell>
      </root>
    </mxGraphModel>
  </diagram>
</mxfile>
